<!-- icon666.com - MILLIONS vector ICONS FREE --><svg version="1.1" id="Layer_1" xmlns="http://www.w3.org/2000/svg" xmlns:xlink="http://www.w3.org/1999/xlink" x="0px" y="0px" viewBox="0 0 512 512" style="enable-background:new 0 0 512 512;" xml:space="preserve"><g><g><path d="M450.878,53.36c-4.364-4.364-10.283-6.814-16.454-6.814c-0.003,0-0.005,0-0.006,0l-69.812,0.02V23.273 c0-6.881-3.044-13.408-8.315-17.83s-12.227-6.284-19.005-5.089L73.53,46.927c-11.12,1.964-19.226,11.627-19.226,22.917v372.337 c0,11.293,8.108,20.956,19.228,22.919l263.758,46.545c1.347,0.237,2.7,0.354,4.045,0.354c5.427,0,10.735-1.901,14.958-5.444 c5.271-4.422,8.315-10.949,8.315-17.828v-23.273h69.818c12.853,0,23.273-10.42,23.273-23.273V69.818 C457.697,63.645,455.244,57.724,450.878,53.36z M318.061,69.846v372.336v18.806l-217.212-38.332V89.369l217.212-38.353V69.846z M411.152,418.909h-46.545V93.111l46.545-0.014V418.909z" fill="#000000" style="fill: rgb(255, 255, 255);"></path></g></g><g><g><path d="M264.704,255.054c-4.329-4.329-10.333-6.811-16.462-6.811s-12.133,2.482-16.462,6.811 c-4.329,4.329-6.811,10.333-6.811,16.462s2.482,12.117,6.811,16.462c4.344,4.329,10.333,6.811,16.462,6.811 s12.133-2.482,16.462-6.811c4.329-4.344,6.811-10.333,6.811-16.462S269.033,259.383,264.704,255.054z" fill="#000000" style="fill: rgb(255, 255, 255);"></path></g></g></svg>