<!-- icon666.com - MILLIONS vector ICONS FREE --><svg fill="none" viewBox="0 0 24 24" xmlns="http://www.w3.org/2000/svg"><path clip-rule="evenodd" d="m12 20.5c-2.05648 0-3.9424-.7303-5.41253-1.9457.79751-2.2183 2.92009-3.8043 5.41253-3.8043 2.4924 0 4.615 1.586 5.4125 3.8043-1.4701 1.2154-3.356 1.9457-5.4125 1.9457zm10-8.5c0 5.5228-4.4772 10-10 10-5.52285 0-10-4.4772-10-10 0-5.52285 4.47715-10 10-10 5.5228 0 10 4.47715 10 10zm-10 1.25c1.5188 0 2.75-1.2312 2.75-2.75 0-1.51878-1.2312-2.75-2.75-2.75s-2.75 1.23122-2.75 2.75c0 1.5188 1.2312 2.75 2.75 2.75zm4.25-2.75c0 1.3173-.5994 2.4944-1.5396 3.2737 1.6948.6835 3.0717 1.9887 3.8485 3.6332 1.2126-1.4693 1.9411-3.353 1.9411-5.4069 0-4.69442-3.8056-8.5-8.5-8.5-4.69442 0-8.5 3.80558-8.5 8.5 0 2.0539.72845 3.9376 1.94109 5.4069.77684-1.6445 2.15374-2.9497 3.84852-3.6332-.94017-.7793-1.53961-1.9564-1.53961-3.2737 0-2.34721 1.90279-4.25 4.25-4.25 2.3472 0 4.25 1.90279 4.25 4.25z" fill="rgb(0,0,0)" fill-rule="evenodd" style="fill: rgb(70, 113, 240);"></path></svg>